<?xml version="1.0" encoding="UTF-8"?>
<svg width="171px" height="42px" viewBox="0 0 171 42" version="1.1" xmlns="http://www.w3.org/2000/svg" xmlns:xlink="http://www.w3.org/1999/xlink">
    <!-- Generator: Sketch 50.2 (55047) - http://www.bohemiancoding.com/sketch -->
    <title>icebreaker</title>
    <desc>Created with Sketch.</desc>
    <defs></defs>
    <g id="layout" stroke="none" stroke-width="1" fill="none" fill-rule="evenodd">
        <g id="Desktop---long" transform="translate(-267.000000, -597.000000)" fill="#1A1919">
            <g id="icebreaker" transform="translate(267.000000, 597.000000)">
                <path d="M64.9967362,34.5000932 C67.0339625,34.5000932 68.7496679,35.9478033 68.7496679,38.2269309 C68.7496679,40.506245 67.0339625,42 64.9967362,42 C62.9747143,42 61.2743989,40.506245 61.2743989,38.2269309 C61.2743989,35.9478033 62.9747143,34.5000932 64.9967362,34.5000932 Z M81.898094,34.5000932 C83.9355058,34.5000932 85.4824777,35.9478033 85.4824777,38.2269309 C85.4824777,38.3963834 85.4824777,38.6582986 85.4672731,38.8122786 L79.7842885,38.8122786 C79.9374468,39.9210836 80.8259868,40.6139937 81.9746731,40.6139937 C82.7712441,40.6139937 83.5524249,40.2443298 83.9201158,39.5821785 C84.3184013,39.7671037 84.7932658,39.9671285 85.2067559,40.1520537 C84.5787331,41.4148387 83.2461085,42 81.898094,42 C79.8608677,42 78.2219268,40.506245 78.2219268,38.2269309 C78.2219268,35.9478033 79.8608677,34.5000932 81.898094,34.5000932 Z M101.200104,34.5000932 C103.237331,34.5000932 104.953036,35.9478033 104.953036,38.2269309 C104.953036,40.506245 103.237331,42 101.200104,42 C99.1780826,42 97.4777673,40.506245 97.4777673,38.2269309 C97.4777673,35.9478033 99.1780826,34.5000932 101.200104,34.5000932 Z M124.369637,34.5000932 C125.227397,34.5000932 126.2843,34.8544709 126.774555,35.6706021 L126.774555,34.6542596 L128.336916,34.6542596 L128.336916,41.84602 L126.774555,41.84602 L126.774555,40.8142049 C126.29969,41.5995774 125.257992,42 124.369637,42 C122.439585,42 120.739269,40.5370036 120.739269,38.2424035 C120.739269,35.9478033 122.439585,34.5000932 124.369637,34.5000932 Z M138.025192,34.6542596 L138.025192,38.6582986 C138.025192,39.8440937 138.653214,40.4600136 139.51116,40.4600136 C140.430108,40.4600136 141.349243,39.9518424 141.349243,38.5196047 L141.349243,34.6542596 L142.926995,34.6542596 L142.926995,41.84602 L141.349243,41.84602 L141.349243,40.7987323 C140.935753,41.61505 139.970634,42 139.220047,42 C137.473747,42 136.432235,40.8759087 136.447624,38.8430373 L136.447624,34.6542596 L138.025192,34.6542596 Z M155.227117,34.5000932 C156.084878,34.5000932 157.14178,34.8544709 157.632035,35.6706021 L157.632035,34.6542596 L159.194396,34.6542596 L159.194396,41.84602 L157.632035,41.84602 L157.632035,40.8142049 C157.15717,41.5995774 156.115472,42 155.227117,42 C153.297064,42 151.59675,40.5370036 151.59675,38.2424035 C151.59675,35.9478033 153.297064,34.5000932 155.227117,34.5000932 Z M163.403465,30.7424968 L163.403465,41.84602 L161.825714,41.84602 L161.825714,30.7424968 L163.403465,30.7424968 Z M149.101532,34.5000932 C149.607176,34.5000932 150.14323,34.6233145 150.372967,34.7772944 L150.112635,36.2404772 C149.71435,36.040266 149.362049,35.9940347 149.055732,35.9940347 C147.707718,35.9940347 147.140884,37.3492822 147.140884,39.258746 L147.140884,41.84602 L145.563133,41.84602 L145.563133,34.6542596 L147.140884,34.6542596 L147.140884,36.3019946 C147.508575,35.023737 148.213177,34.5000932 149.101532,34.5000932 Z M133.106699,31.9282917 L133.106699,34.6542596 L134.623262,34.6542596 L134.623262,35.9632759 L133.106699,35.9632759 L133.106699,41.84602 L131.528949,41.84602 L131.528949,35.9632759 L130.242307,35.9632759 L130.242307,34.6542596 L131.528949,34.6542596 L131.528949,31.9282917 L133.106699,31.9282917 Z M49.7035392,31.2353818 L53.2879227,38.796806 L56.8723063,31.2353818 L58.3274945,31.2353818 L59.6141345,41.84602 L57.9905836,41.84602 L57.0868391,34.2691231 L53.9925245,40.6602249 L52.6139155,40.6602249 L49.5043964,34.2691231 L48.6006519,41.84602 L46.9769156,41.84602 L48.263741,31.2353818 L49.7035392,31.2353818 Z M94.7190657,31.9282917 L94.7190657,34.6542596 L96.2356285,34.6542596 L96.2356285,35.9632759 L94.7190657,35.9632759 L94.7190657,41.84602 L93.1413139,41.84602 L93.1413139,35.9632759 L91.854674,35.9632759 L91.854674,34.6542596 L93.1413139,34.6542596 L93.1413139,31.9282917 L94.7190657,31.9282917 Z M71.4408759,34.6542596 L73.4934923,39.8286211 L75.5153287,34.6542596 L77.2004395,34.6542596 L74.2132987,41.84602 L72.7581105,41.84602 L69.7711551,34.6542596 L71.4408759,34.6542596 Z M115.889754,34.5000932 C117.620664,34.5000932 118.616378,35.6243708 118.616378,37.6572423 L118.616378,41.84602 L117.038626,41.84602 L117.038626,37.8419809 C117.038626,36.7024172 116.456588,36.055552 115.537453,36.055552 C114.603114,36.055552 113.69937,36.5637233 113.69937,37.9806748 L113.69937,41.84602 L112.121618,41.84602 L112.121618,34.6542596 L113.69937,34.6542596 L113.69937,35.7321195 C114.11286,34.9005157 115.093183,34.5000932 115.889754,34.5000932 Z M155.410871,36.040266 C154.216014,36.040266 153.220301,36.9026284 153.220301,38.2269309 C153.220301,39.5514199 154.216014,40.4600136 155.410871,40.4600136 C156.574947,40.4600136 157.616645,39.6438824 157.616645,38.2269309 C157.616645,36.8101659 156.483163,36.040266 155.410871,36.040266 Z M124.55339,36.040266 C123.358719,36.040266 122.363005,36.9026284 122.363005,38.2269309 C122.363005,39.5514199 123.358719,40.4600136 124.55339,40.4600136 C125.717652,40.4600136 126.759164,39.6438824 126.759164,38.2269309 C126.759164,36.8101659 125.625683,36.040266 124.55339,36.040266 Z M101.200104,36.055552 C100.020638,36.055552 99.0403145,36.9026284 99.0403145,38.2269309 C99.0403145,39.5821785 100.020638,40.4600136 101.200104,40.4600136 C102.394961,40.4600136 103.375284,39.5821785 103.375284,38.2269309 C103.375284,36.9026284 102.394961,36.055552 101.200104,36.055552 Z M64.9967362,36.055552 C63.8172698,36.055552 62.8369462,36.9026284 62.8369462,38.2269309 C62.8369462,39.5821785 63.8172698,40.4600136 64.9967362,40.4600136 C66.1915924,40.4600136 67.171916,39.5821785 67.171916,38.2269309 C67.171916,36.9026284 66.1915924,36.055552 64.9967362,36.055552 Z M81.898094,35.8860995 C80.7952067,35.8860995 79.9374468,36.5484372 79.7842885,37.6572423 L83.9355058,37.6572423 C83.7823476,36.5329646 82.9703867,35.8860995 81.898094,35.8860995 Z M34.6749386,8.78729882 C39.4588141,8.78729882 43.0917782,12.1864165 43.0917782,17.5024544 C43.0917782,17.9724103 43.0558065,18.4787175 43.0198347,19.0210029 L29.6392607,19.0210029 C30.1068938,21.7693407 32.1211279,23.107438 34.8547976,23.107438 C36.7970881,23.107438 38.6316487,22.2756478 39.5667295,20.7207481 L42.3723427,22.1311751 C40.8976852,24.9518424 37.8762413,26.3980612 34.6749386,26.3980612 C29.8191197,26.3980612 26.0064822,22.8904492 26.0064822,17.5384328 C26.0064822,12.1864165 29.8910633,8.78729882 34.6749386,8.78729882 Z M50.5737224,0 L50.5737224,11.644131 C51.6886621,9.72758342 54.0266421,8.78729882 56.400594,8.78729882 C60.9686388,8.78729882 64.7454899,12.1864165 64.7454899,17.5745977 C64.7454899,22.926614 60.9326671,26.3980612 56.400594,26.3980612 C54.1345574,26.3980612 51.6886621,25.4217983 50.5737224,23.5052507 L50.5737224,26.0365998 L47.0486736,26.0365998 L47.0486736,0 L50.5737224,0 Z M89.8886494,8.78729882 C94.6725249,8.78729882 98.305489,12.1864165 98.305489,17.5024544 C98.305489,17.9724103 98.2695173,18.4787175 98.2335454,19.0210029 L84.8531569,19.0210029 C85.3206046,21.7693407 87.3348387,23.107438 90.0685084,23.107438 C92.0107989,23.107438 93.8453595,22.2756478 94.7804403,20.7207481 L97.5860534,22.1311751 C96.111396,24.9518424 93.0899521,26.3980612 89.8886494,26.3980612 C85.0328305,26.3980612 81.2201929,22.8904492 81.2201929,17.5384328 C81.2201929,12.1864165 85.1047739,8.78729882 89.8886494,8.78729882 Z M109.528127,8.78729882 C111.902079,8.78729882 114.240059,9.72758342 115.355184,11.644131 L115.355184,9.14894674 L118.880047,9.14894674 L118.880047,26.0365998 L115.355184,26.0365998 L115.355184,23.5052507 C114.240059,25.4217983 111.830135,26.3980612 109.564284,26.3980612 C104.996054,26.3980612 101.219388,22.926614 101.219388,17.5745977 C101.219388,12.1864165 104.996054,8.78729882 109.528127,8.78729882 Z M147.475941,8.78729882 C152.259817,8.78729882 155.892781,12.1864165 155.892781,17.5024544 C155.892781,17.9724103 155.856623,18.4787175 155.820837,19.0210029 L142.440263,19.0210029 C142.907897,21.7693407 144.922316,23.107438 147.6558,23.107438 C149.598091,23.107438 151.432651,22.2756478 152.367732,20.7207481 L155.173346,22.1311751 C153.698688,24.9518424 150.677244,26.3980612 147.475941,26.3980612 C142.620123,26.3980612 138.807485,22.8904492 138.807485,17.5384328 C138.807485,12.1864165 142.692066,8.78729882 147.475941,8.78729882 Z M17.3013122,8.78729882 C20.0347963,8.78729882 22.3729618,9.90822096 23.8476193,11.6801094 L21.5096391,13.8861617 C20.5384012,12.8012179 19.0637438,12.1140868 17.3732557,12.1140868 C14.2438966,12.1140868 11.7620293,14.356304 11.7620293,17.5745977 C11.7620293,20.7930777 14.2438966,23.0351084 17.3732557,23.0351084 C19.0637438,23.0351084 20.5384012,22.3479773 21.5096391,21.26322 L23.8476193,23.4690859 C22.3729618,25.2409744 20.0347963,26.3620828 17.3013122,26.3620828 C12.4454931,26.3620828 8.23698064,22.926614 8.23698064,17.5745977 C8.23698064,12.2225812 12.4454931,8.78729882 17.3013122,8.78729882 Z M77.011495,8.78729882 C78.1624064,8.78729882 79.3494751,9.07661715 79.8890517,9.40210029 L79.2775315,12.7652395 C78.3422654,12.3310756 77.4791281,12.1864165 76.7956643,12.1864165 C73.7382487,12.1864165 72.2993777,15.4048965 72.2993777,19.9612876 L72.2993777,26.0365998 L68.7385426,26.0365998 L68.7385426,9.14894674 L72.2993777,9.14894674 L72.2993777,12.9458771 C73.1627003,9.98055054 74.8531884,8.78729882 77.011495,8.78729882 Z M126.793653,0 L126.793653,14.8985894 L132.296963,9.14894674 L137.080654,9.14894674 L129.994956,16.4536755 L138.73517,26.0365998 L134.131154,26.0365998 L126.793653,18.0087616 L126.793653,26.0365998 L123.268604,26.0365998 L123.268604,0 L126.793653,0 Z M168.122628,8.78729882 C169.27354,8.78729882 170.460423,9.07661715 171,9.40210029 L170.388479,12.7652395 C169.453399,12.3310756 168.590076,12.1864165 167.906798,12.1864165 C164.849382,12.1864165 163.410511,15.4048965 163.410511,19.9612876 L163.410511,26.0365998 L159.849677,26.0365998 L159.849677,9.14894674 L163.410511,9.14894674 L163.410511,12.9458771 C164.273833,9.98055054 165.964323,8.78729882 168.122628,8.78729882 Z M4.17235527,9.14894674 L4.17235527,26.0365998 L0.647491984,26.0365998 L0.647491984,9.14894674 L4.17235527,9.14894674 Z M55.9689326,12.1504381 C53.3791501,12.1504381 50.6095087,14.1393152 50.6095087,17.5384328 C50.6095087,20.9375505 53.1633195,23.0351084 55.9689326,23.0351084 C58.8824612,23.0351084 61.1844695,20.6845834 61.1844695,17.5384328 C61.1844695,14.356304 58.8824612,12.1504381 55.9689326,12.1504381 Z M109.959788,12.1504381 C107.082232,12.1504381 104.744252,14.356304 104.744252,17.5384328 C104.744252,20.6845834 107.082232,23.0351084 109.959788,23.0351084 C112.801373,23.0351084 115.319212,20.9375505 115.319212,17.5384328 C115.319212,14.1393152 112.549571,12.1504381 109.959788,12.1504381 Z M34.7109105,12.0779221 C32.1211279,12.0779221 30.1788374,13.3798545 29.6752326,16.1643572 L39.5667295,16.1643572 C39.243169,13.5245138 37.3006929,12.0779221 34.7109105,12.0779221 Z M147.511914,12.0779221 C144.922316,12.0779221 142.97984,13.3798545 142.476235,16.1643572 L152.367732,16.1643572 C152.044172,13.5245138 150.101696,12.0779221 147.511914,12.0779221 Z M89.9246212,12.0779221 C87.3348387,12.0779221 85.3925482,13.3798545 84.8889433,16.1643572 L94.7804403,16.1643572 C94.4568797,13.5245138 92.5144037,12.0779221 89.9246212,12.0779221 Z M2.40992363,0.723109423 C3.74087938,0.723109423 4.81984726,1.69955881 4.81984726,3.00149133 C4.81984726,4.30323743 3.74087938,5.27950039 2.40992363,5.27950039 C1.11512508,5.27950039 0,4.30323743 0,3.00149133 C0,1.69955881 1.11512508,0.723109423 2.40992363,0.723109423 Z" id="Shape"></path>
            </g>
        </g>
    </g>
</svg>