<?xml version="1.0" encoding="UTF-8"?>
<svg width="172px" height="44px" viewBox="0 0 172 44" version="1.1" xmlns="http://www.w3.org/2000/svg" xmlns:xlink="http://www.w3.org/1999/xlink">
    <!-- Generator: Sketch 50.2 (55047) - http://www.bohemiancoding.com/sketch -->
    <title>kinesis</title>
    <desc>Created with Sketch.</desc>
    <defs></defs>
    <g id="layout" stroke="none" stroke-width="1" fill="none" fill-rule="evenodd">
        <g id="Desktop---long" transform="translate(-266.000000, -1216.000000)" fill-rule="nonzero">
            <g id="kinesis" transform="translate(266.000000, 1216.000000)">
                <g id="Group">
                    <path d="M48.050234,23.0651034 L47.6175745,22.1405977 L48.050234,21.2150805 C48.1050756,21.0995164 48.0628833,20.9624156 47.9517128,20.8949425 L14.9731489,0.545701149 C14.8526012,0.470206304 14.6918326,0.503436628 14.6134681,0.620045977 L13.4718723,2.29558621 C13.3940967,2.4114376 13.4249961,2.56625365 13.5417234,2.64556322 L39.7098085,20.2137011 L0.260638298,20.8711724 C0.117710631,20.8725592 0.00259923606,20.9853694 0.00260638298,21.124046 L0.00260638298,23.1541149 C0.00260638298,23.2937732 0.119298124,23.4069885 0.263244681,23.4069885 L39.772883,24.0644598 L13.7773404,41.7125057 C13.6604477,41.7923529 13.6303942,41.9480129 13.7095745,42.0634943 L14.914766,43.8073103 C14.9639426,43.8775534 15.0456596,43.9197491 15.1331809,43.920092 C15.1837069,43.9201081 15.2331485,43.9058756 15.2754894,43.8791264 L47.9537979,23.3847356 C48.0639306,23.3166715 48.1051529,23.1800424 48.050234,23.0651034 Z" id="Shape" fill="#C8A977"></path>
                    <path d="M47.5263511,20.6314483 L5.97747872,7.48758621 C5.29728983,7.27137678 4.5523832,7.52756885 4.1644124,8.11114518 C3.7764416,8.6947215 3.84307537,9.45877112 4.32659574,9.9708046 L15.7847766,22.0950805 L4.37090426,34.4666667 C3.95631034,34.9154493 3.85259549,35.5588525 4.10616157,36.1090189 C4.35972764,36.6591853 4.92312783,37.0131688 5.54429787,37.0125977 C5.71318943,37.0129407 5.8810001,36.9864604 6.04107447,36.9342069 L47.5346915,23.531908 C48.1794083,23.3237408 48.613614,22.7376208 48.6114814,22.0783849 C48.6093487,21.419149 48.1713594,20.835685 47.5253085,20.6314483 L47.5263511,20.6314483 Z M19.0787234,23.102023 C19.6201599,22.5176108 19.6149686,21.6296341 19.066734,21.0512184 L10.6997234,12.194069 L42.0091596,22.1011494 L10.6679255,32.2216552 L19.0787234,23.102023 Z" id="Shape" fill="#212C30"></path>
                </g>
                <g id="Group" transform="translate(61.000000, 8.000000)" fill="#212C30">
                    <polygon id="Shape" points="16.9583333 9.82758621 12.3333333 9.82758621 4.11111111 18.6206897 4.11111111 0 0 0 0 29.4827586 4.11111111 29.4827586 4.11111111 20.1724138 11.8194444 29.4827586 16.9583333 29.4827586 8.22222222 19.137931"></polygon>
                    <polygon id="Shape" points="20.0416667 9.82758621 24.1759028 9.82758621 24.1759028 29.3917241 20.0416667 29.3917241"></polygon>
                    <path d="M38.8315,9.33672414 C36.3356492,9.35826164 33.9881373,10.5332858 32.4649306,12.5234483 L30.862625,9.74948276 L29.262375,9.74948276 L29.262375,29.3136207 L33.3945556,29.3136207 L33.3945556,17.2458621 C33.3945556,15.332069 35.7039722,13.3474138 37.9003333,13.3474138 C40.3592917,13.3474138 41.699,14.6591379 41.699,17.7703448 L41.699,29.3136207 L45.8327222,29.3136207 L45.8327222,17.4687931 C45.8327222,12.6724138 43.4123056,9.33672414 38.8315,9.33672414 Z" id="Shape"></path>
                    <path d="M59.1486111,9.33672414 C53.7861806,9.33672414 49.8765139,13.9474138 49.8765139,19.607069 C49.8765139,25.1932759 53.6366389,29.7268966 59.6696944,29.7268966 C62.4005387,29.7348745 65.013821,28.609167 66.8934306,26.6151724 L65.3666667,24.1422414 C64.0048756,25.3976569 62.2244984,26.0928198 60.3778333,26.0901724 C56.1690833,26.0901724 54.0092083,23.2453448 54.0842361,19.9060345 L67.4155417,19.9060345 C68.1211111,13.7968966 64.3609861,9.33672414 59.1486111,9.33672414 Z M54.34375,16.6815517 C54.8727064,14.3942619 56.8879563,12.7682959 59.2210694,12.7463793 C61.6055139,12.7463793 63.3938472,14.3591379 63.3938472,16.6815517 L54.34375,16.6815517 Z" id="Shape"></path>
                    <path d="M77.9471806,17.4693103 C75.9003611,16.7575862 74.7096806,15.8953448 74.7096806,14.6591379 C74.7096806,13.4591379 75.5277917,12.5234483 77.6131528,12.5234483 C79.5242419,12.6190214 81.3753858,13.2261081 82.9755833,14.282069 L83.7577222,11.2846552 C81.9385505,9.9548269 79.7504539,9.23348837 77.5021528,9.22241379 C73.6284583,9.22241379 70.6504722,11.4713793 70.6504722,14.9575862 C70.6504722,17.9182759 72.7738611,19.6412069 76.0129028,20.8794828 C79.1404306,22.0774138 80.4436528,22.7162069 80.4436528,24.1381034 C80.4436528,25.712069 79.2899722,26.4237931 77.3526111,26.4237931 C75.2013279,26.3187631 73.1178575,25.6324874 71.3210972,24.437069 L70.5379306,27.5172414 C72.5258131,28.952723 74.9046547,29.7372382 77.3510694,29.7641379 C81.2987639,29.7641379 84.5013194,27.8503448 84.5013194,23.7687931 C84.5013194,20.0565517 81.22425,18.6325862 77.9471806,17.4693103 Z" id="Shape"></path>
                    <polygon id="Shape" points="88.3888889 9.82758621 92.523125 9.82758621 92.523125 29.3917241 88.3888889 29.3917241"></polygon>
                    <path d="M104.272167,17.4693103 C102.225347,16.7575862 101.034667,15.8953448 101.034667,14.6591379 C101.034667,13.4591379 101.852778,12.5234483 103.938139,12.5234483 C105.849214,12.6190958 107.700339,13.2261763 109.300569,14.282069 L110.082194,11.2846552 C108.263071,9.95473251 106.074943,9.23338375 103.826625,9.22241379 C99.9534444,9.22241379 96.9754583,11.4713793 96.9754583,14.9575862 C96.9754583,17.9182759 99.0988472,19.6412069 102.337889,20.8794828 C105.465417,22.0774138 106.768639,22.7162069 106.768639,24.1381034 C106.768639,25.712069 105.614958,26.4237931 103.677083,26.4237931 C101.525963,26.3187471 99.442662,25.6324689 97.6460833,24.437069 L96.8629167,27.5172414 C98.8508754,28.9525717 101.229668,29.7370709 103.676056,29.7641379 C107.624264,29.7641379 110.826819,27.8503448 110.826819,23.7687931 C110.826819,20.0565517 107.54975,18.6325862 104.272167,17.4693103 Z" id="Shape"></path>
                    <polygon id="Shape" points="20.0416667 0.517241379 24.1620278 0.517241379 24.1620278 4.66448276 20.0416667 4.66448276"></polygon>
                    <polygon id="Shape" points="88.3888889 0.517241379 92.50925 0.517241379 92.50925 4.66448276 88.3888889 4.66448276"></polygon>
                </g>
            </g>
        </g>
    </g>
</svg>